<?xml version="1.0" encoding="utf-8"?>
<!-- Generator: Adobe Illustrator 19.1.0, SVG Export Plug-In . SVG Version: 6.00 Build 0)  -->
<!DOCTYPE svg PUBLIC "-//W3C//DTD SVG 1.1//EN" "http://www.w3.org/Graphics/SVG/1.1/DTD/svg11.dtd">
<svg version="1.1" id="Layer_1" xmlns="http://www.w3.org/2000/svg" xmlns:xlink="http://www.w3.org/1999/xlink" x="0px" y="0px"
	 width="465.3px" height="463.3px" viewBox="-72 165.7 465.3 463.3" style="enable-background:new -72 165.7 465.3 463.3;"
	 xml:space="preserve">
<style type="text/css">
	.st0{fill:#FFFFFF;}
</style>
<g>
	<g>
		<path class="st0" d="M160.7,628.8c-64,0-128-0.3-192,0.2c-18.7,0.1-36.7-14-40.4-33.2c-0.5-2.6-0.2-5.3-0.2-8
			c0-76.2,0-152.3,0-228.5c0-51.3,0-102.7,0-154c0-13.7,6.1-24.5,17.2-32.4c7-5,14.7-7.2,23.3-7.2c128.2,0,256.3,0,384.5,0
			c8.4,0,16.1,2.1,22.8,7c10.7,7.9,17.2,18.2,17.2,32c0,128.2-0.1,256.3,0.1,384.5c0,18.3-14.6,36.2-33.6,39.4
			c-2.4,0.4-5,0.2-7.5,0.2C288.3,628.8,224.5,628.8,160.7,628.8L160.7,628.8z M-4.6,499.5c1.1,0.1,1.9,0.2,2.7,0.2
			c18.3,0,36.6,0.2,55,0c18.3-0.3,36.6,1.3,54.8-1c5.9-0.8,11.8-1.9,17.4-3.7c10.8-3.5,19.5-10.2,26.5-19.3c6.9-9,10.9-19,12.1-30
			c0.7-6.7,0.6-13.5-0.7-20.3c-2.9-15-10.7-26.2-24.3-33.2c-1.8-0.9-3.6-1.9-5.8-3c3-2,5.7-3.5,7.9-5.4c3.2-2.8,6.4-5.8,9.1-9.1
			c6.2-7.8,7.3-17.3,7.8-26.7c0.3-5.2-0.7-10.6-1.9-15.7c-2.8-11.7-8.9-21.5-19.2-28c-10.4-6.6-22.1-10.2-34.3-10.4
			c-34.3-0.4-68.6-0.1-102.9-0.1c-1.3,0-2.6,0.1-4.1,0.2C-4.6,362.5-4.6,430.7-4.6,499.5z M327,430.7c0.3-10.4,0.6-20.1-1.1-29.6
			c-1.7-9.8-4.4-19.3-10-27.8c-4.6-7-9.7-13.4-16.5-18.3c-11.5-8.5-24.7-11.8-38.5-13c-9.9-0.9-19.8,0.1-29.5,2.7
			c-16,4.3-28.5,13.3-37.9,26.6c-7.5,10.7-11.1,23.1-12.1,35.8c-0.8,10.9-1.1,21.9,0.6,32.8c1.5,9.6,4.4,18.7,9.3,27.1
			c2.4,3.9,5.3,7.7,8.7,10.8c3.7,3.5,8.2,6.2,12.4,9c11.8,7.8,25.1,10.9,39,11.8c7.6,0.5,15.2-0.4,22.7-1.8
			c9.2-1.8,17.9-4.9,25.6-10.2c5.3-3.7,10.1-7.9,14.3-13c4.1-5,7-10.5,9.6-16.2c0.9-1.8,0.9-4,1.4-6.4c-13.4,0-26.3,0-39.3,0
			c-3.7,6.1-8.3,11.3-15.2,13.9c-2.6,1-5.4,1.5-8.1,2.1c-7.9,1.8-15.6,0.4-22.8-2.6c-11-4.5-17.2-13.2-19.5-24.7
			c-0.6-2.8-0.7-5.7-1.1-9.1C255.3,430.7,290.9,430.7,327,430.7z M212.3,322.4c1.1,0.1,1.7,0.3,2.3,0.3c26.5,0,52.9-0.1,79.4-0.2
			c0.1,0,0.3-0.1,0.4-0.2s0.2-0.2,0.7-0.7c-0.2-6.2,0.3-12.8-0.3-19.5c-0.9-0.1-1.6-0.3-2.2-0.3c-26.5,0-52.9,0.1-79.4,0.1
			c-0.1,0-0.3,0.1-0.4,0.2c-0.1,0.1-0.2,0.2-0.5,0.6C212.3,309,212.3,315.5,212.3,322.4z"/>
		<path class="st0" d="M42.1,436.8c0-7.8,0-15.6,0-23.5c0-4.2,0.4-4.6,4.6-4.6c14.3,0,28.6-0.4,42.9,0.1c7.5,0.3,15.1,1.4,21.8,5.6
			c4.2,2.6,7,6.4,8.3,10.8c3.2,10.7,1.7,21.1-5.1,30.1c-2.8,3.8-7.3,5.9-11.7,7.1c-4.9,1.3-10.1,2-15.1,2.1
			c-13.5,0.3-26.9,0.1-40.4,0.1c-0.5,0-1,0-1.5,0c-3-0.2-3.5-0.6-3.7-3.5c-0.1-1,0-2,0-3C42.1,451.1,42.1,444,42.1,436.8z"/>
		<path class="st0" d="M42.3,374.8c-0.1-2-0.2-3.3-0.2-4.6c0-12,0-24,0-36c0-5.4,0.1-5.4,5.7-5.5c2.5,0,5,0,7.5,0c7,0,14,0.1,21,0
			c8-0.1,15.9,0.7,23.7,2.1c6.9,1.2,12.6,4.5,15.2,11.4c3.4,9,2.5,20.4-6.2,27.1c-1.2,0.9-2.4,1.8-3.8,2.3c-5.6,2-11.3,3.4-17.5,3.3
			c-13.3-0.3-26.7-0.1-40-0.1C46.2,374.8,44.5,374.8,42.3,374.8z"/>
		<path class="st0" d="M286.5,404.6c-22.1,0-44,0-66.1,0c0.9-8.6,4.2-15.9,9.6-22.1c4.3-4.9,10.1-7.8,16.5-8.5s12.9-0.9,19.2,1.1
			c10.6,3.5,17.2,10.8,20.3,21.3C286.7,398.9,288,401.5,286.5,404.6z"/>
	</g>
</g>
</svg>
