<?xml version="1.0" encoding="utf-8"?>
<!-- Generator: Adobe Illustrator 19.1.0, SVG Export Plug-In . SVG Version: 6.00 Build 0)  -->
<!DOCTYPE svg PUBLIC "-//W3C//DTD SVG 1.1//EN" "http://www.w3.org/Graphics/SVG/1.1/DTD/svg11.dtd">
<svg version="1.1" id="Layer_1" xmlns="http://www.w3.org/2000/svg" xmlns:xlink="http://www.w3.org/1999/xlink" x="0px" y="0px"
	 width="465.3px" height="463.3px" viewBox="-72 165.7 465.3 463.3" style="enable-background:new -72 165.7 465.3 463.3;"
	 xml:space="preserve">
<style type="text/css">
	.st0{fill:#FFFFFF;}
</style>
<g>
	<g>
		<path class="st0" d="M159.7,629c-59.5,0-118.9,0-178.4,0c-14.8,0-27.4-5.4-37.8-15.8c-8.5-8.5-13.6-18.9-15-31
			c-0.3-2.7-0.4-5.5-0.4-8.3c0-98.6,0-197.1,0-295.7c0-19.8,0-39.6,0-59.4c0-14.7,5.5-27.3,15.8-37.7c9-9,20-14.1,32.7-15.3
			c1.7-0.2,3.5-0.3,5.2-0.3c118.6,0,237.2,0,355.7,0c14.9,0,27.7,5.3,38.2,15.8c8.9,8.9,14,19.7,15.3,32.2c0.2,1.8,0.3,3.6,0.3,5.4
			c0,118.8,0,237.6,0,356.5c0,13.1-4.3,24.6-12.7,34.5c-8.5,10.1-19.4,16.1-32.4,18.3c-2.8,0.5-5.8,0.6-8.6,0.6
			c-33.3,0-66.6,0-99.9,0C211.7,629,185.7,629,159.7,629z M297.8,361.9c10,42.5,3.5,81.9-21.6,117.5c-25.1,35.6-59.9,55.5-103.3,60
			c-26.1,2.7-51.1-1.9-74.7-13.3c-24.1-11.6-43.7-28.5-58.1-51.1c-22.4-35-28.2-72.8-18.5-113.1c-13.4,0-26.6,0-40,0
			c0,1,0,1.8,0,2.6c0,63.8,0,127.6,0,191.4c0,0.6,0,1.2,0,1.8c-0.1,7.9,5.4,15.7,14.7,17.4c1.6,0.3,3.2,0.2,4.9,0.2
			c105.7,0,211.4,0,317,0c0.8,0,1.7,0.1,2.5,0c1.4-0.2,2.9-0.3,4.3-0.7c7.7-2.2,12.8-9,12.8-17.1c0-13.2,0-26.4,0-39.6
			c0-51.3,0-102.5,0-153.8c0-0.8,0-1.5,0-2.4C324.3,361.9,311.1,361.9,297.8,361.9z M248.7,397.4c0-49-39.6-89.1-89.1-89
			c-50,0-89,40.7-89,88.9c0,49.3,40.2,89.1,89,89.1C207.9,486.5,248.6,447.4,248.7,397.4z M337.8,263.9c0-9,0-18,0-27
			c-0.1-9.7-7.9-17.6-17.6-17.6c-17.9-0.1-35.8-0.1-53.7,0c-9.7,0-17.6,7.9-17.6,17.6c-0.1,17.9-0.1,35.8,0,53.7
			c0,9.7,7.9,17.6,17.6,17.6c17.9,0,35.8,0,53.7,0c1.5,0,3-0.2,4.5-0.6c7.8-2.1,13.1-9,13.2-17C337.8,281.7,337.8,272.8,337.8,263.9
			z"/>
	</g>
</g>
</svg>
