<svg xmlns="http://www.w3.org/2000/svg" width="176.6" height="176.6" viewBox="0 0 176.6 176.6"><style type="text/css">.st0{fill:#FFFFFF;}</style><path d="M120.4 32.1c-1.2.4-2.3 1.2-3.2 2.1-.7.6-1.3 1.2-1.9 1.9l-1.5 1.8c-1 1.2-2 2.4-2.9 3.7-3.8 5-7.2 10.2-10.3 15.6-6.2 10.8-11.1 22.2-15.2 33.6-2.1 5.7-4 11.4-5.9 17-1 2.8-2 5.5-3.1 8-.3.6-.6 1.2-.9 1.7l-.2.4-.1.1-.1.2c-.2.2-.5.4-.7.2l-.3-.3-.1-.2v-.1l-.1-.2-.1-.5c-.3-1.3-.5-2.8-.6-4.3-.2-3-.2-6.2 0-9.3.2-3.1.8-9.5 1.2-12.6.7-6.3 1.6-13.1 2.7-20l.9-5.2c.1-.9.3-1.8.4-2.6.2-.9.3-1.9.4-2.9.1-1 .2-2 .2-3v-3.2c-.1-1.8-.2-3.6-.7-5.2-.5-1.6-1.2-2.7-2.1-3.5-.5-.4-1-.7-1.7-.9-.7-.2-1.4-.3-2-.2-1.2.1-2.4.7-3.7 1.7-1.2 1-2.3 2.5-3.4 3.9l-.6.9-.4.6-.8 1.2c-2 3.3-3.6 6.5-5.2 9.8-2.9 6.4-5.6 12.7-8.1 18.7s-4.4 11.4-5.6 15.2c-1.3 3.9-1.9 6.2-1.9 6.2-1 3.1-1.9 6.2-.5 3.3 1.2-3 3.3-8.3 5.1-12.8.9-2.2 1.8-4.3 2.5-5.8.6-1.5 1.1-2.3 1.2-2.3 0 0-.2.8-.7 1.9-.5 1.1-1.1 2.6-1.7 4.1.3.1-2.7 9.4-3.8 12.4-.5 1.6-2.4 6.9-4.2 12.2-1.3 3.8-2.6 7.6-3.3 10l-37.4-37.1 88.3-88.3 32.1 32.1zm-.1 104.6c.4 2.1.9 4.2 1.5 6.3l-2.1 2.1c-1.2-3.3-1.8-6.6-2.3-9.7-1.5-9.4-1.4-17.6-1.2-22.5.1-2.8.3-5.5.7-12.1-.1 1.9-.2 3.7-.2 5.6h.3c.5-13 2.3-29.1 4.4-41.9h.2s.3-1.6.5-3.2c.3-1.6.5-3.2.5-3.2.9-3.1-.4 4-1.7 14.1-1.4 10-2.5 22.9-2.8 31h.3l.2-3.2.2-3.2h.2c-.7 9.7-.9 18.5-.4 27.4.3 4.4.7 8.8 1.6 13.3l.2 1.1c.2-.1.2-.1-.1-1.9zm1.8-88.4c-.3 3.1-.8 6.2-1.3 9.4s-1.1 6.4-1.5 9.7c-.9 6.4-1.7 12.9-2.3 19.4-1.2 13-1.9 26-1 39.2.2 3.3.6 6.6 1.1 9.9.5 3.2 1.3 6.5 2.4 9.7l-31.1 31.1-50.7-50.7c.6-1.4 1.4-3.2 2.2-5.1 3-7.1 7.1-16.7 9.6-22.6 2.5-5.9.4.2.6.3 2.3-6 3.8-8.9 6.2-14.9 0 0 .1-.3.4-.8.2-.5.5-1.2.9-2.1.8-1.8 1.9-4.3 3.1-7 2.5-5.5 5.6-11.9 7.9-16 0 0 .4-.7 1.3-2.3l.4-.6c.1-.2.2-.4.4-.6.1-.1.2-.2.2-.4l.3-.4c.1-.1.2-.1.3-.1.1 0 .2.1.2.2.2.6.2.5.3.5.2-.1.2-.1.1-.1 0 .1 0 .1.1.2v.7c0 1 0 2.1-.1 3.2s-.2 2.2-.4 3.2c-.2 1.1-.4 2.1-.5 2.9h-.2c-.9 6.4-2 12.8-2.7 19.3h-.2c-.2 1.6-.4 3.2-.5 4.5-.2 1.2-.2 2-.3 2h-.2c-.2 1.6-.4 4.1-.5 6.1-.2 2-.2 3.7-.3 3.7h.2c-.2 4.5-.3 8.6-.1 12.6.1 2 .3 4 .8 6l.2.8c0 .1.1.2.1.4l.2.5c.3.8.6 1.5 1 2.2.8 1.4 2 2.4 3.3 3 .7.2 1.4.4 2.1.5.7 0 1.4-.1 2.1-.3 1.3-.4 2.5-1.3 3.5-2.5l.7-.9c.2-.3.5-.7.6-.9.3-.4.5-.8.7-1.2.4-.8.8-1.6 1.1-2.3 1.4-3.2 2.5-6.4 3.7-9.6 1.1-3.2 2.2-6.5 3.4-9.9 2.3-6.7 4.8-13.5 7.7-20.2 5.8-13.5 13.2-26.6 22.2-37.5l.7-.8.6-.6.3-.3v-.1c0-.1 0-.2-.2-.2.2-.1.4-.3.6-.2.1.1.2.2.2.3v.6c.2 1.3.2 2.3.2 2.9v1.4c.1 1 .2 1.7-.1 4.8zm.3 94.1l-.1.1c-.1-.4-.2-.8-.3-1.1h.2c0 .3.1.7.2 1zm54.2-54.1l-53.8 53.8c-.4-1.3-.7-2.6-1-3.9-.6-3.1-.9-6.3-.7-6.3-1-7.9-1.1-15.1-.9-21.5.2-6.4.7-12 1.3-16.8.2-1.6.7-6.4 1.3-12 .3-2.7.7-5.6 1-8.5v-.2c.8-5.4 1.7-10.8 2.7-16.3.5-3 1-6.1 1.3-9.2l.2-2.4.1-2.4v-3l48.5 48.7z"/><path class="st0" d="M121.1 140.7c-.2-.8-.4-1.6-.5-2.3.1.8.3 1.6.5 2.3zm.9 3.4c0-.1 0-.2-.1-.2.1.3.2.6.3.8 0-.2-.1-.4-.2-.6z"/></svg>