<?xml version="1.0" encoding="utf-8"?>
<!-- Generator: Adobe Illustrator 19.1.0, SVG Export Plug-In . SVG Version: 6.00 Build 0)  -->
<!DOCTYPE svg PUBLIC "-//W3C//DTD SVG 1.1//EN" "http://www.w3.org/Graphics/SVG/1.1/DTD/svg11.dtd">
<svg version="1.1" id="Layer_1" xmlns="http://www.w3.org/2000/svg" xmlns:xlink="http://www.w3.org/1999/xlink" x="0px" y="0px"
	 width="176.6px" height="176.6px" viewBox="0 0 176.6 176.6" style="enable-background:new 0 0 176.6 176.6;" xml:space="preserve"
	>
<style type="text/css">
	.st0{fill:#FFFFFF;}
</style>
<g>
	<path d="M120.4,32.1c-1.2,0.4-2.3,1.2-3.2,2.1c-0.7,0.6-1.3,1.2-1.9,1.9l-1.5,1.8c-1,1.2-2,2.4-2.9,3.7c-3.8,5-7.2,10.2-10.3,15.6
		C94.4,68,89.5,79.4,85.4,90.8c-2.1,5.7-4,11.4-5.9,17c-1,2.8-2,5.5-3.1,8c-0.3,0.6-0.6,1.2-0.9,1.7l-0.2,0.4
		c-0.1,0.1-0.1,0.1-0.1,0.1c0,0.1-0.1,0.1-0.1,0.2c-0.2,0.2-0.5,0.4-0.7,0.2c-0.1-0.1-0.2-0.2-0.3-0.3c0-0.1-0.1-0.1-0.1-0.2
		c0,0,0,0,0-0.1l-0.1-0.2l-0.1-0.5c-0.3-1.3-0.5-2.8-0.6-4.3c-0.2-3-0.2-6.2,0-9.3c0.2-3.1,0.8-9.5,1.2-12.6
		c0.7-6.3,1.6-13.1,2.7-20c0.3-1.7,0.6-3.5,0.9-5.2c0.1-0.9,0.3-1.8,0.4-2.6c0.2-0.9,0.3-1.9,0.4-2.9c0.1-1,0.2-2,0.2-3
		c0-0.5,0-1,0-1.5v-0.8l0-0.9c-0.1-1.8-0.2-3.6-0.7-5.2c-0.5-1.6-1.2-2.7-2.1-3.5c-0.5-0.4-1-0.7-1.7-0.9c-0.7-0.2-1.4-0.3-2-0.2
		c-1.2,0.1-2.4,0.7-3.7,1.7c-1.2,1-2.3,2.5-3.4,3.9l-0.6,0.9l-0.4,0.6l-0.8,1.2c-2,3.3-3.6,6.5-5.2,9.8C55.5,68.7,52.8,75,50.3,81
		c-2.5,6-4.4,11.4-5.6,15.2c-1.3,3.9-1.9,6.2-1.9,6.2c-1,3.1-1.9,6.2-0.5,3.3c1.2-3,3.3-8.3,5.1-12.8c0.9-2.2,1.8-4.3,2.5-5.8
		c0.6-1.5,1.1-2.3,1.2-2.3c0,0-0.2,0.8-0.7,1.9c-0.5,1.1-1.1,2.6-1.7,4.1c0.3,0.1-2.7,9.4-3.8,12.4c-0.5,1.6-2.4,6.9-4.2,12.2
		c-1.3,3.8-2.6,7.6-3.3,10L0,88.3L88.3,0L120.4,32.1z"/>
	<path d="M120.3,136.7c0.4,2.1,0.9,4.2,1.5,6.3l-2.1,2.1c-1.2-3.3-1.8-6.6-2.3-9.7c-1.5-9.4-1.4-17.6-1.2-22.5
		c0.1-2.8,0.3-5.5,0.7-12.1c-0.1,1.9-0.2,3.7-0.2,5.6c0.1,0,0.3,0,0.3,0c0.5-13,2.3-29.1,4.4-41.9c0,0,0.2,0,0.2,0
		c0,0,0.3-1.6,0.5-3.2c0.3-1.6,0.5-3.2,0.5-3.2c0.9-3.1-0.4,4-1.7,14.1c-1.4,10-2.5,22.9-2.8,31c0.1,0,0.2,0,0.3,0
		c0,0,0.1-1.6,0.2-3.2c0.1-1.6,0.2-3.2,0.2-3.2l0.2,0c-0.7,9.7-0.9,18.5-0.4,27.4c0.3,4.4,0.7,8.8,1.6,13.3c0.1,0.4,0.1,0.7,0.2,1.1
		C120.6,138.5,120.6,138.5,120.3,136.7z"/>
	<path d="M122.1,48.3c-0.3,3.1-0.8,6.2-1.3,9.4c-0.5,3.2-1.1,6.4-1.5,9.7c-0.9,6.4-1.7,12.9-2.3,19.4c-1.2,13-1.9,26-1,39.2
		c0.2,3.3,0.6,6.6,1.1,9.9c0.5,3.2,1.3,6.5,2.4,9.7l-31.1,31.1L37.7,126c0.6-1.4,1.4-3.2,2.2-5.1c3-7.1,7.1-16.7,9.6-22.6
		c2.5-5.9,0.4,0.2,0.6,0.3c2.3-6,3.8-8.9,6.2-14.9c0,0,0.1-0.3,0.4-0.8c0.2-0.5,0.5-1.2,0.9-2.1c0.8-1.8,1.9-4.3,3.1-7
		c2.5-5.5,5.6-11.9,7.9-16c0,0,0.4-0.7,1.3-2.3c0.1-0.2,0.3-0.4,0.4-0.6c0.1-0.2,0.2-0.4,0.4-0.6c0.1-0.1,0.2-0.2,0.2-0.4
		c0.1-0.1,0.2-0.3,0.3-0.4c0.1-0.1,0.2-0.1,0.3-0.1c0.1,0,0.2,0.1,0.2,0.2c0.2,0.6,0.2,0.5,0.3,0.5C72.2,54,72.2,54,72.1,54
		c0,0.1,0,0.1,0.1,0.2c0,0,0,0.1,0,0.2c0,0,0,0,0,0.1l0,0.4c0,1,0,2.1-0.1,3.2c-0.1,1.1-0.2,2.2-0.4,3.2c-0.2,1.1-0.4,2.1-0.5,2.9
		c-0.1,0-0.1,0-0.2,0c-0.9,6.4-2,12.8-2.7,19.3c-0.1,0-0.1,0-0.2,0c-0.2,1.6-0.4,3.2-0.5,4.5c-0.2,1.2-0.2,2-0.3,2
		c-0.1,0-0.1,0-0.2,0c-0.2,1.6-0.4,4.1-0.5,6.1c-0.2,2-0.2,3.7-0.3,3.7c0.1,0,0.1,0,0.2,0c-0.2,4.5-0.3,8.6-0.1,12.6
		c0.1,2,0.3,4,0.8,6c0.1,0.3,0.1,0.5,0.2,0.8c0,0.1,0.1,0.2,0.1,0.4l0.2,0.5c0.3,0.8,0.6,1.5,1,2.2c0.8,1.4,2,2.4,3.3,3
		c0.7,0.2,1.4,0.4,2.1,0.5c0.7,0,1.4-0.1,2.1-0.3c1.3-0.4,2.5-1.3,3.5-2.5c0.2-0.3,0.5-0.6,0.7-0.9c0.2-0.3,0.5-0.7,0.6-0.9
		c0.3-0.4,0.5-0.8,0.7-1.2c0.4-0.8,0.8-1.6,1.1-2.3c1.4-3.2,2.5-6.4,3.7-9.6c1.1-3.2,2.2-6.5,3.4-9.9c2.3-6.7,4.8-13.5,7.7-20.2
		c5.8-13.5,13.2-26.6,22.2-37.5c0.2-0.3,0.5-0.5,0.7-0.8c0.2-0.2,0.4-0.4,0.6-0.6c0.1-0.1,0.2-0.2,0.3-0.3c0,0,0,0,0,0
		c0,0,0,0,0-0.1c0-0.1,0-0.2-0.2-0.2c0.2-0.1,0.4-0.3,0.6-0.2c0.1,0.1,0.2,0.2,0.2,0.3c0,0.1,0,0.1,0,0.2l0,0.1v0l0,0.1l0,0.2
		c0.2,1.3,0.2,2.3,0.2,2.9c0,0.6,0,1,0,1.4C122.3,44.5,122.4,45.2,122.1,48.3z"/>
	<path d="M122.4,142.4l-0.1,0.1c-0.1-0.4-0.2-0.8-0.3-1.1l0.1,0l0.1,0C122.2,141.7,122.3,142.1,122.4,142.4z"/>
	<path d="M176.6,88.3l-53.8,53.8c-0.4-1.3-0.7-2.6-1-3.9c-0.6-3.1-0.9-6.3-0.7-6.3c-1-7.9-1.1-15.1-0.9-21.5
		c0.2-6.4,0.7-12,1.3-16.8c0.2-1.6,0.7-6.4,1.3-12c0.3-2.7,0.7-5.6,1-8.5c0-0.1,0-0.1,0-0.2c0.8-5.4,1.7-10.8,2.7-16.3
		c0.5-3,1-6.1,1.3-9.2l0.2-2.4c0-0.8,0.1-1.6,0.1-2.4c0-0.8,0-1.6,0-2.5c0-0.2,0-0.3,0-0.5L176.6,88.3z"/>
	<path class="st0" d="M121.1,140.7c-0.2-0.8-0.4-1.6-0.5-2.3C120.7,139.2,120.9,140,121.1,140.7z"/>
	<path class="st0" d="M122,144.1c0-0.1,0-0.2-0.1-0.2c0.1,0.3,0.2,0.6,0.3,0.8C122.2,144.5,122.1,144.3,122,144.1z"/>
</g>
<g>
</g>
<g>
</g>
<g>
</g>
<g>
</g>
<g>
</g>
<g>
</g>
</svg>
